<svg version="1.1" id="Layer_1" xmlns="http://www.w3.org/2000/svg" xmlns:xlink="http://www.w3.org/1999/xlink" x="0px" y="0px"
	 width="100%" viewBox="44 236 938 528" enable-background="new 0 0 1024 1024" xml:space="preserve">

<path fill="#9394E7" opacity="1.000000" stroke="none" 
	d="
M473.690552,649.747925 
	C468.688354,658.357544 464.087219,667.236694 458.545929,675.484070 
	C454.714050,681.187256 450.287231,686.951538 444.875763,691.028687 
	C435.888550,697.799988 421.615601,693.161621 416.998108,682.837585 
	C414.865234,678.068787 415.271912,673.493835 418.938477,669.399170 
	C432.421631,654.341980 443.568695,637.624512 453.911041,620.315918 
	C456.019501,616.787292 455.833710,614.813049 452.678741,611.650635 
	C432.606201,591.530884 418.289642,567.805176 409.750366,540.648071 
	C409.302155,539.222595 408.830658,537.802979 408.314178,536.401245 
	C408.146942,535.947266 407.801025,535.559143 407.243195,534.675964 
	C405.007507,536.056458 402.795013,537.417297 400.587616,538.786438 
	C386.416565,547.575867 371.308655,551.266663 354.853516,546.844971 
	C351.855621,546.039429 348.909515,544.668640 346.255066,543.043396 
	C342.067993,540.479797 342.022186,537.764038 345.376678,534.147705 
	C351.923553,527.089783 358.399445,519.965027 364.830719,512.801575 
	C365.810486,511.710236 366.393829,510.263031 367.411957,508.483154 
	C367.603271,507.724945 367.543121,507.463959 367.482971,507.203003 
	C367.243073,507.385834 367.003143,507.568665 366.763214,507.751526 
	C357.975769,512.752930 349.597229,518.757874 340.313354,522.541077 
	C322.486938,529.805359 304.108429,530.713684 285.937592,522.996277 
	C283.506958,521.963928 281.139282,520.647888 278.989624,519.116333 
	C273.676819,515.330994 274.038879,511.815674 279.718231,508.600342 
	C288.397278,503.686646 297.317719,499.106659 305.546204,493.517212 
	C313.077911,488.401093 319.871307,482.186157 326.886475,476.331329 
	C328.307892,475.144958 329.266144,473.403625 330.437927,471.918152 
	C330.121277,471.524445 329.804626,471.130737 329.487976,470.737030 
	C324.639252,473.693573 319.759888,476.601166 314.947937,479.616333 
	C302.879181,487.178650 290.196259,493.290771 276.090790,495.969757 
	C253.801697,500.203033 233.093445,495.514740 213.895462,484.046265 
	C207.675903,480.330872 202.166214,475.383209 196.536835,470.750122 
	C194.799942,469.320679 193.409363,467.222504 192.442520,465.157806 
	C190.527924,461.069122 192.238541,458.208954 196.774734,457.949585 
	C204.576691,457.503448 212.393677,457.298035 220.206680,457.071899 
	C246.652145,456.306488 271.780121,449.862701 295.966125,439.442322 
	C299.004028,438.133453 301.787842,436.234741 305.028015,434.261475 
	C305.355896,433.745026 305.345123,433.576385 305.334351,433.407745 
	C305.225464,433.607971 305.116516,433.808167 305.007599,434.008392 
	C294.663208,435.485046 284.336853,437.105042 273.971069,438.411835 
	C240.760010,442.598572 207.634415,444.239685 175.336716,432.846802 
	C157.894913,426.694305 141.507858,418.397522 129.073532,404.291473 
	C124.694008,399.323151 121.470459,393.066803 118.825340,386.922302 
	C116.639206,381.844055 119.256897,378.530762 124.814484,379.089203 
	C134.212219,380.033539 143.644409,381.307892 152.847824,383.390503 
	C183.684677,390.368469 214.696579,396.304626 246.135666,399.709045 
	C256.014435,400.778809 266.015900,400.715332 276.071930,400.313110 
	C264.950958,397.859192 253.814163,395.474518 242.711853,392.938843 
	C202.810028,383.825806 163.868713,371.998444 128.530884,350.663574 
	C108.078705,338.315735 90.938820,322.571564 80.719650,300.377075 
	C76.846016,291.964111 74.217300,283.279663 74.939537,273.857147 
	C75.363518,268.325653 78.045326,265.863281 83.112000,268.006989 
	C92.122383,271.819305 100.885704,276.295563 109.486343,280.982300 
	C144.024094,299.802948 179.416733,316.871857 216.169434,330.827606 
	C253.798401,345.115997 291.883362,358.201691 329.729126,371.923065 
	C334.718048,373.731812 339.682404,375.816071 344.290344,378.422943 
	C352.672150,383.164825 357.699524,390.509827 360.027191,399.938843 
	C364.648590,418.659119 371.666870,436.449768 382.733795,452.341888 
	C396.403870,471.972137 414.918518,482.763245 439.399994,481.896637 
	C440.048035,481.873718 440.702454,482.032745 441.761047,482.153290 
	C423.108978,522.214661 429.497955,559.635559 453.587128,594.914917 
	C459.897583,604.156860 467.302734,612.732056 478.094971,617.445862 
	C482.225281,609.163696 482.340485,609.148193 488.887146,615.375793 
	C493.591278,619.850769 498.067749,624.600342 503.053955,628.735107 
	C510.406006,634.831787 517.955750,634.607727 525.177917,628.256592 
	C530.798889,623.313477 535.952454,617.837891 541.587280,612.911865 
	C545.443481,609.540710 546.354126,609.976746 548.132996,614.844604 
	C549.512329,618.619141 552.070374,616.990234 553.622803,615.566711 
	C559.860107,609.847351 566.460754,604.349243 571.768372,597.826538 
	C583.609558,583.274475 591.372253,566.546631 594.976929,548.081482 
	C599.192261,526.488037 596.192871,505.734192 586.932556,485.835205 
	C586.511536,484.930511 586.096680,484.022614 585.703857,483.105469 
	C585.649170,482.977783 585.738525,482.788391 585.707336,483.009766 
	C593.571472,481.757446 601.470642,481.125549 609.026245,479.167694 
	C625.406311,474.923096 636.672424,463.645172 645.845276,450.146729 
	C655.686829,435.664154 662.038147,419.547791 666.039185,402.592621 
	C669.447388,388.149414 678.020996,378.768829 691.822632,373.949097 
	C716.326782,365.391998 740.915405,357.073517 765.363098,348.359070 
	C806.794373,333.590759 847.292908,316.566803 886.612183,296.836853 
	C902.079651,289.075470 917.186523,280.597351 932.503540,272.532745 
	C935.732544,270.832611 939.073914,269.255096 942.519348,268.076965 
	C948.384460,266.071472 951.729797,268.178406 951.796082,274.409515 
	C951.846741,279.165619 951.258118,284.082520 950.012573,288.672455 
	C943.886841,311.246155 929.435913,327.997742 911.256958,341.704224 
	C884.520386,361.862885 853.790771,373.841034 821.940613,382.800507 
	C799.562256,389.095612 776.716919,393.730469 754.083496,399.120422 
	C752.680542,399.454498 751.306213,399.908844 750.055725,401.385132 
	C763.731995,400.444275 777.590332,400.594421 791.048828,398.348572 
	C825.132812,392.660950 859.033997,385.880371 893.019958,379.599670 
	C895.620056,379.119171 898.308472,378.967438 900.958862,378.938965 
	C907.033997,378.873657 909.657227,381.065277 907.737000,386.741547 
	C905.619385,393.001495 902.256653,399.389832 897.801758,404.212219 
	C880.680847,422.745056 858.400635,432.221710 834.318726,437.772308 
	C813.347290,442.605988 792.045410,442.534515 770.809875,440.086517 
	C754.660339,438.224792 738.616699,435.446075 722.522949,433.095734 
	C721.955444,433.012817 721.356140,433.147400 719.729187,433.239807 
	C734.390747,441.693787 749.271057,446.790680 764.508972,450.964203 
	C784.744324,456.506470 805.492065,457.475006 826.315552,457.943726 
	C829.189270,458.008453 832.030334,459.521088 834.886536,460.363403 
	C833.746216,463.517883 833.392456,467.359863 831.335449,469.713074 
	C819.641235,483.091766 804.303650,490.429016 787.416138,494.946198 
	C761.283569,501.936279 737.815674,494.631500 715.444763,481.527954 
	C709.557251,478.079407 703.771423,474.457306 697.457886,470.621765 
	C696.728394,470.103882 696.439514,469.960205 695.927856,469.635406 
	C695.149963,469.262939 694.554443,469.152618 693.981201,468.852325 
	C693.871460,468.691620 693.739441,468.720886 693.607361,468.750122 
	C693.748291,468.826508 693.889160,468.902893 694.126831,469.243683 
	C694.702698,469.773987 695.181763,470.039886 695.766174,470.525635 
	C696.057190,471.022949 696.295044,471.244354 696.585083,471.409698 
	C704.280518,478.446533 711.535522,486.063354 719.805603,492.343597 
	C726.905579,497.735382 735.158020,501.612732 742.919861,506.127075 
	C744.356750,506.962769 745.938599,507.552612 747.360107,508.410736 
	C753.250610,511.966705 753.545166,515.308960 747.954102,519.401855 
	C740.059082,525.181396 730.930115,527.461914 721.276978,528.083374 
	C699.633057,529.476562 680.735352,522.275696 663.492554,509.803101 
	C662.819458,509.316223 662.182251,508.775513 661.482483,508.332245 
	C661.242981,508.180481 660.862854,508.250519 659.114502,508.077301 
	C662.323303,512.605896 664.709229,516.645142 667.753052,520.105713 
	C671.925232,524.849121 676.567017,529.183167 681.062561,533.637146 
	C685.364380,537.899170 685.159424,540.908569 679.709839,543.734253 
	C665.368408,551.170532 650.755798,550.207764 636.352295,544.047668 
	C630.595154,541.585449 625.279968,538.089844 619.185181,534.747437 
	C610.247559,565.937195 594.352722,592.824890 570.302673,615.949646 
	C578.057190,627.693787 585.644592,639.565552 593.645325,651.151855 
	C598.081421,657.576050 603.186462,663.540527 608.031067,669.679810 
	C611.549194,674.138123 611.687622,678.839478 609.031860,683.669067 
	C602.847290,694.915894 586.102661,697.820923 578.018555,687.917664 
	C570.197449,678.336487 564.293335,667.188599 557.573975,656.711792 
	C556.630188,655.240112 555.838623,653.670837 554.976624,652.146790 
	C554.535156,652.313232 554.093689,652.479614 553.652222,652.646057 
	C555.435852,659.059448 557.334534,665.443481 558.978516,671.892517 
	C562.135986,684.278748 565.582214,696.615417 568.079346,709.138000 
	C569.940857,718.473328 564.299927,726.252258 554.300232,730.193848 
	C544.614746,734.011597 534.892578,731.818665 529.598022,724.289673 
	C523.520203,715.646851 521.158813,705.536804 519.069580,695.422546 
	C517.059631,685.691895 515.428528,675.883118 513.684875,666.401611 
	C511.477386,677.662292 509.791229,689.367126 506.753815,700.710144 
	C504.586761,708.802917 501.347321,716.828674 497.234924,724.122314 
	C492.569214,732.397278 482.725616,734.016418 471.895752,729.759521 
	C462.573914,726.095398 456.927460,718.154053 458.925568,709.247192 
	C462.522003,693.215088 466.996307,677.379272 471.142883,661.471680 
	C472.064697,657.935303 473.148346,654.441040 474.394470,650.328125 
	C474.729370,649.051086 474.827332,648.373291 474.925262,647.695496 
	C474.714996,647.655884 474.504761,647.616333 474.294495,647.576782 
	C474.093170,648.300537 473.891846,649.024231 473.690552,649.747925 
M332.609039,469.946808 
	C332.552673,469.681610 332.496338,469.416443 332.439972,469.151245 
	C332.178864,469.321167 331.917755,469.491089 331.241089,469.984741 
	C331.240845,470.213562 331.240601,470.442352 331.240356,470.671143 
	C331.559967,470.518616 331.879578,470.366058 332.609039,469.946808 
M553.474182,650.710693 
	C553.538818,650.343872 553.603455,649.977112 553.668091,649.610291 
	C553.486877,649.841858 553.305664,650.073364 553.474182,650.710693 
z"/>
<path fill="#9293E6" opacity="1.000000" stroke="none" 
	d="
M415.984924,462.964203 
	C409.773132,462.323425 407.230011,457.241730 404.618134,452.826050 
	C399.236206,443.727142 398.929016,433.455505 399.605316,423.287720 
	C402.856812,374.402161 446.278625,335.747925 493.061951,328.859467 
	C517.884399,325.204559 541.734192,327.787842 564.849609,338.883301 
	C562.694763,353.650818 560.345337,367.690948 558.045410,381.435120 
	C550.002075,382.937927 548.638184,384.351196 549.842041,389.321594 
	C548.020203,391.245087 546.322937,392.836945 544.743896,394.538452 
	C537.958374,401.849945 534.861267,410.969940 532.115173,420.281860 
	C530.058289,427.256714 528.525757,428.129150 521.467529,428.120331 
	C515.906128,428.113373 510.345367,428.623901 504.781128,428.805908 
	C503.866608,428.835815 502.934326,428.360718 502.012238,428.111664 
	C496.467316,426.614014 495.304810,422.026154 493.916077,417.272461 
	C490.307312,404.919617 485.125854,393.520416 473.057159,386.925964 
	C473.042664,386.942596 473.073822,386.948212 472.889404,386.659668 
	C469.474426,384.995117 466.243835,383.619110 462.618164,382.100281 
	C457.813385,381.679016 453.403748,381.400543 448.578217,381.081177 
	C437.595032,382.105103 428.660614,385.677826 423.092712,395.638153 
	C411.083008,417.122040 408.781769,439.511627 415.984924,462.964203 
z"/>

<path fill="#8F91E5" opacity="1.000000" stroke="none" 
	d="
M614.095703,420.989594 
	C610.906128,412.812408 607.716553,404.635193 604.149780,395.935486 
	C596.143616,383.073242 584.394653,380.233673 570.995850,381.198334 
	C563.209106,381.025330 556.803284,384.556854 550.338257,388.910400 
	C548.638184,384.351196 550.002075,382.937927 558.045410,381.435120 
	C560.345337,367.690948 562.694763,353.650818 565.079956,339.135803 
	C593.925903,352.027557 614.141663,373.180695 623.635925,403.822510 
	C625.167969,408.766907 625.499451,414.083282 625.973572,419.600189 
	C622.040771,418.187561 618.589417,416.975220 615.546204,420.871094 
	C615.343811,421.130188 614.591980,420.960083 614.095703,420.989594 
z"/>
<path fill="#9294E6" opacity="1.000000" stroke="none" 
	d="
M480.386292,456.094604 
	C477.624878,452.242188 479.118073,450.470001 483.095093,450.048798 
	C484.243561,449.927185 485.431519,449.925354 486.576416,450.068481 
	C491.035553,450.625977 493.720459,449.716095 495.963440,444.796967 
	C499.361084,437.345734 506.793793,434.687347 514.720520,435.117981 
	C522.290283,435.529236 529.329590,437.955566 532.262817,445.891602 
	C533.557922,449.395752 535.255615,450.638428 538.779602,450.076660 
	C540.399841,449.818359 542.107666,449.861511 543.748779,450.030243 
	C548.119507,450.479584 548.806519,452.123474 546.239990,456.500122 
	C535.066895,458.442169 527.817871,465.495453 521.159302,473.568817 
	C515.240662,480.745087 511.259247,480.865234 505.826050,473.378021 
	C499.423279,464.554596 491.497345,458.426239 480.386292,456.094604 
z"/>
<path fill="#969AE8" opacity="1.000000" stroke="none" 
	d="
M614.062500,421.333832 
	C614.591980,420.960083 615.343811,421.130188 615.546204,420.871094 
	C618.589417,416.975220 622.040771,418.187561 625.971680,420.021576 
	C628.466248,432.696533 627.734253,444.972961 620.637268,456.016327 
	C618.767029,458.926697 615.372375,460.857422 612.314819,463.324036 
	C612.965454,451.914795 613.979065,440.419525 615.364075,428.403748 
	C617.668518,426.263947 617.057068,425.391327 614.882812,424.977264 
	C614.598328,423.877533 614.313782,422.777802 614.062500,421.333832 
z"/>











<path fill="#9395E5" opacity="1.000000" stroke="none" 
	d="
M460.538574,394.891022 
	C462.766815,395.542328 464.534729,396.221222 466.655060,396.933472 
	C473.947266,401.522125 478.911163,407.353668 480.351196,415.904846 
	C482.151428,426.594879 477.712799,436.790131 468.630829,441.825317 
	C458.694641,447.334015 446.302399,446.184784 438.322174,439.014618 
	C430.383606,431.881775 427.489624,420.350586 431.226837,410.742645 
	C434.979492,401.095062 444.217834,394.921600 455.080353,394.825928 
	C456.745911,394.811249 458.412262,394.885498 460.538574,394.891022 
M461.581207,415.001770 
	C463.564453,415.495300 465.665710,416.662842 467.506165,416.340698 
	C471.224121,415.689819 473.137054,411.174011 471.673981,407.693085 
	C470.381042,404.616943 466.339630,403.072876 463.346466,404.511414 
	C459.595673,406.314148 458.726013,410.098846 461.581207,415.001770 
z"/>
<path fill="#9294E5" opacity="1.000000" stroke="none" 
	d="
M593.743347,405.345337 
	C594.890808,410.144470 596.819092,414.908905 597.034302,419.749481 
	C597.600830,432.493347 587.459167,443.835571 575.643372,445.106201 
	C559.618591,446.829468 548.300903,437.373199 546.086121,422.794769 
	C544.302551,411.054138 553.002625,398.401245 565.293701,395.467865 
	C572.161682,393.828796 578.847595,394.916718 585.632996,398.470673 
	C586.347961,398.971558 586.611755,399.104767 587.095703,399.428833 
	C589.434875,401.538330 591.595825,403.374115 593.748901,405.243317 
	C593.741089,405.276733 593.743347,405.345337 593.743347,405.345337 
M586.746521,405.606567 
	C581.398560,402.822815 576.614380,404.056702 576.210999,408.813934 
	C576.016235,411.111389 577.446106,414.491272 579.264038,415.723938 
	C580.794189,416.761505 584.479065,416.167908 586.268677,414.932526 
	C589.353760,412.802887 589.654480,409.407471 586.746521,405.606567 
z"/>


<path fill="#8F91E5" opacity="1.000000" stroke="none" 
	d="
M614.872253,425.355530 
	C617.057068,425.391327 617.668518,426.263947 615.404663,427.936035 
	C615.003174,427.237122 614.932434,426.485443 614.872253,425.355530 
z"/>



</svg>